<svg width="184" height="54" viewBox="0 0 184 54" fill="none" xmlns="http://www.w3.org/2000/svg">
<path d="M20.1616 28.9751H27.9766C27.8691 31.9113 27.2783 34.391 26.2041 36.4141C25.1299 38.4193 23.5991 39.9411 21.6118 40.9795C19.6424 42.0179 17.2612 42.5371 14.4683 42.5371C12.3019 42.5371 10.3773 42.179 8.69434 41.4629C7.01139 40.7288 5.5791 39.6546 4.39746 38.2402C3.21582 36.8258 2.32064 35.0802 1.71191 33.0034C1.12109 30.9087 0.825684 28.5007 0.825684 25.7793V19.146C0.825684 16.4246 1.139 14.0166 1.76562 11.9219C2.41016 9.82715 3.32324 8.07259 4.50488 6.6582C5.70443 5.22591 7.14567 4.15169 8.82861 3.43555C10.5295 2.7015 12.4451 2.33447 14.5757 2.33447C17.4224 2.33447 19.8035 2.87158 21.7192 3.9458C23.6349 5.02002 25.112 6.58659 26.1504 8.64551C27.2067 10.6865 27.8423 13.1841 28.0571 16.1382H20.1885C20.1527 14.2762 19.9468 12.8171 19.5708 11.7607C19.2127 10.6865 18.6398 9.93457 17.8521 9.50488C17.0643 9.05729 15.9722 8.8335 14.5757 8.8335C13.5373 8.8335 12.6421 9.02148 11.8901 9.39746C11.1382 9.75553 10.5205 10.3374 10.0371 11.1431C9.55371 11.9487 9.19564 13.005 8.96289 14.312C8.74805 15.619 8.64062 17.2124 8.64062 19.0923V25.7793C8.64062 27.6234 8.7391 29.1989 8.93604 30.5059C9.13298 31.7949 9.44629 32.8512 9.87598 33.6748C10.3057 34.4984 10.8875 35.0981 11.6216 35.4741C12.3735 35.8501 13.3224 36.0381 14.4683 36.0381C15.7931 36.0381 16.8584 35.8411 17.6641 35.4473C18.4876 35.0534 19.0964 34.3462 19.4902 33.3257C19.8841 32.3052 20.1079 30.855 20.1616 28.9751ZM39.8467 0.75V42H32.3271V0.75H39.8467ZM38.7725 26.4775L36.7314 26.5312C36.7314 24.4902 36.9373 22.6104 37.3491 20.8916C37.7609 19.1729 38.3696 17.6779 39.1753 16.4067C39.9989 15.1356 40.9836 14.1509 42.1294 13.4526C43.2931 12.7544 44.5732 12.4053 45.9697 12.4053C47.1693 12.4053 48.2614 12.6112 49.2461 13.0229C50.2308 13.4347 51.0812 14.0793 51.7974 14.9565C52.5314 15.8338 53.0954 16.9976 53.4893 18.4478C53.8831 19.88 54.0801 21.6167 54.0801 23.6577V42H46.5337V23.604C46.5337 22.3507 46.4084 21.366 46.1577 20.6499C45.9071 19.9338 45.5311 19.4325 45.0298 19.146C44.5285 18.8416 43.9019 18.6895 43.1499 18.6895C42.3442 18.6895 41.6549 18.8864 41.082 19.2803C40.527 19.6742 40.0794 20.2292 39.7393 20.9453C39.3991 21.6436 39.1484 22.4671 38.9873 23.416C38.8441 24.3649 38.7725 25.3854 38.7725 26.4775ZM72.3955 35.313V21.8853C72.3955 21.008 72.2881 20.3097 72.0732 19.7905C71.8763 19.2713 71.5719 18.8953 71.1602 18.6626C70.7663 18.4119 70.2829 18.2866 69.71 18.2866C69.0654 18.2866 68.5283 18.4209 68.0986 18.6895C67.6689 18.958 67.3467 19.3429 67.1318 19.8442C66.9349 20.3455 66.8364 20.9453 66.8364 21.6436H59.29C59.29 20.3903 59.5317 19.2087 60.0151 18.0986C60.4985 16.9707 61.2057 15.986 62.1367 15.1445C63.0856 14.2852 64.2135 13.6138 65.5205 13.1304C66.8275 12.647 68.2956 12.4053 69.9248 12.4053C71.8584 12.4053 73.5771 12.7365 75.0811 13.3989C76.585 14.0435 77.7756 15.0729 78.6528 16.4873C79.5301 17.9017 79.9688 19.7368 79.9688 21.9927V34.937C79.9688 36.5662 80.0493 37.8911 80.2104 38.9116C80.3895 39.9321 80.6491 40.8094 80.9893 41.5435V42H73.416C73.0758 41.1943 72.8162 40.1917 72.6372 38.9922C72.4761 37.7747 72.3955 36.5483 72.3955 35.313ZM73.3086 24.2485L73.3354 28.7603H70.5693C69.8532 28.7603 69.2266 28.8766 68.6895 29.1094C68.1702 29.3421 67.7316 29.6733 67.3735 30.103C67.0155 30.5148 66.7469 30.9982 66.5679 31.5532C66.4067 32.1082 66.3262 32.6991 66.3262 33.3257C66.3262 34.0239 66.4246 34.6147 66.6216 35.0981C66.8185 35.5815 67.1139 35.9486 67.5078 36.1992C67.9017 36.4499 68.3672 36.5752 68.9043 36.5752C69.7279 36.5752 70.444 36.4051 71.0527 36.0649C71.6615 35.7248 72.109 35.313 72.3955 34.8296C72.6999 34.3462 72.7983 33.8986 72.6909 33.4868L74.4097 36.4141C74.1948 37.0765 73.8994 37.7658 73.5234 38.4819C73.1654 39.1981 72.7088 39.8605 72.1538 40.4692C71.5988 41.078 70.9095 41.5793 70.0859 41.9731C69.2803 42.3491 68.3224 42.5371 67.2124 42.5371C65.6548 42.5371 64.2314 42.179 62.9424 41.4629C61.6533 40.7467 60.6328 39.7441 59.8809 38.4551C59.1468 37.166 58.7798 35.6353 58.7798 33.8628C58.7798 32.3947 59.0125 31.0698 59.478 29.8882C59.9614 28.6886 60.6776 27.6771 61.6265 26.8535C62.5754 26.012 63.7749 25.3675 65.2251 24.9199C66.6753 24.4723 68.3761 24.2485 70.3276 24.2485H73.3086ZM98.2036 12.9424V18.6089H83.3794V12.9424H98.2036ZM86.79 5.77197H94.2827V33.1377C94.2827 33.9255 94.3633 34.5431 94.5244 34.9907C94.6855 35.4204 94.9272 35.7248 95.2495 35.9038C95.5897 36.0649 96.0283 36.1455 96.5654 36.1455C96.9593 36.1455 97.3174 36.1276 97.6396 36.0918C97.9619 36.0381 98.2036 35.9844 98.3647 35.9307V41.812C97.7739 42.0448 97.1473 42.2238 96.4849 42.3491C95.8403 42.4744 95.0705 42.5371 94.1753 42.5371C92.6714 42.5371 91.3644 42.2596 90.2544 41.7046C89.1623 41.1317 88.3118 40.2096 87.7031 38.9385C87.0944 37.6673 86.79 36.0023 86.79 33.9434V5.77197ZM116.922 9.88086L108.516 42H100.218L112.437 2.89844H117.62L116.922 9.88086ZM123.555 42L115.096 9.88086L114.317 2.89844H119.581L131.907 42H123.555ZM123.851 27.4175V33.9434H106.207V27.4175H123.851ZM141.495 18.5283V53.1719H134.002V12.9424H140.931L141.495 18.5283ZM156.587 26.4775V28.4111C156.587 30.6849 156.39 32.6991 155.997 34.4536C155.603 36.1903 155.012 37.6673 154.224 38.8848C153.454 40.0843 152.487 40.9974 151.324 41.624C150.16 42.2327 148.799 42.5371 147.242 42.5371C145.792 42.5371 144.538 42.1969 143.482 41.5166C142.444 40.8184 141.566 39.8605 140.85 38.6431C140.134 37.4256 139.561 36.0023 139.131 34.373C138.702 32.7438 138.37 30.9982 138.138 29.1362V26.1284C138.353 24.1411 138.666 22.3149 139.078 20.6499C139.489 18.967 140.053 17.5078 140.77 16.2725C141.504 15.0371 142.39 14.0882 143.428 13.4258C144.485 12.7454 145.738 12.4053 147.188 12.4053C148.764 12.4053 150.133 12.6917 151.297 13.2646C152.479 13.8376 153.454 14.7059 154.224 15.8696C155.012 17.0155 155.603 18.4746 155.997 20.2471C156.39 22.0195 156.587 24.0964 156.587 26.4775ZM149.041 28.4111V26.4775C149.041 25.0811 148.969 23.8905 148.826 22.9058C148.683 21.9211 148.45 21.1154 148.128 20.4888C147.806 19.8621 147.385 19.4056 146.866 19.1191C146.347 18.8327 145.711 18.6895 144.959 18.6895C144.225 18.6895 143.58 18.8327 143.025 19.1191C142.488 19.4056 142.05 19.8263 141.709 20.3813C141.369 20.9185 141.11 21.5809 140.931 22.3687C140.752 23.1385 140.653 24.0158 140.635 25.0005V30.2642C140.671 31.4279 140.823 32.4574 141.092 33.3525C141.378 34.2477 141.835 34.9639 142.461 35.501C143.088 36.0202 143.938 36.2798 145.013 36.2798C145.783 36.2798 146.418 36.1187 146.919 35.7964C147.439 35.4741 147.859 34.9907 148.182 34.3462C148.504 33.7017 148.728 32.887 148.853 31.9023C148.978 30.9176 149.041 29.7539 149.041 28.4111ZM168.726 18.5283V53.1719H161.233V12.9424H168.162L168.726 18.5283ZM183.819 26.4775V28.4111C183.819 30.6849 183.622 32.6991 183.228 34.4536C182.834 36.1903 182.243 37.6673 181.456 38.8848C180.686 40.0843 179.719 40.9974 178.555 41.624C177.391 42.2327 176.031 42.5371 174.473 42.5371C173.023 42.5371 171.77 42.1969 170.713 41.5166C169.675 40.8184 168.798 39.8605 168.082 38.6431C167.365 37.4256 166.792 36.0023 166.363 34.373C165.933 32.7438 165.602 30.9982 165.369 29.1362V26.1284C165.584 24.1411 165.897 22.3149 166.309 20.6499C166.721 18.967 167.285 17.5078 168.001 16.2725C168.735 15.0371 169.621 14.0882 170.66 13.4258C171.716 12.7454 172.969 12.4053 174.419 12.4053C175.995 12.4053 177.365 12.6917 178.528 13.2646C179.71 13.8376 180.686 14.7059 181.456 15.8696C182.243 17.0155 182.834 18.4746 183.228 20.2471C183.622 22.0195 183.819 24.0964 183.819 26.4775ZM176.272 28.4111V26.4775C176.272 25.0811 176.201 23.8905 176.058 22.9058C175.914 21.9211 175.682 21.1154 175.359 20.4888C175.037 19.8621 174.616 19.4056 174.097 19.1191C173.578 18.8327 172.942 18.6895 172.19 18.6895C171.456 18.6895 170.812 18.8327 170.257 19.1191C169.72 19.4056 169.281 19.8263 168.941 20.3813C168.601 20.9185 168.341 21.5809 168.162 22.3687C167.983 23.1385 167.885 24.0158 167.867 25.0005V30.2642C167.903 31.4279 168.055 32.4574 168.323 33.3525C168.61 34.2477 169.066 34.9639 169.693 35.501C170.319 36.0202 171.17 36.2798 172.244 36.2798C173.014 36.2798 173.65 36.1187 174.151 35.7964C174.67 35.4741 175.091 34.9907 175.413 34.3462C175.735 33.7017 175.959 32.887 176.084 31.9023C176.21 30.9176 176.272 29.7539 176.272 28.4111Z" fill="black"/>
</svg>
